<?xml version="1.0" standalone="no"?>
<!DOCTYPE svg PUBLIC "-//W3C//DTD SVG 1.0//EN" "http://www.w3.org/TR/2001/REC-SVG-20010904/DTD/svg10.dtd">
<svg xmlns="http://www.w3.org/2000/svg" xmlns:inkscape="http://www.inkscape.org/namespaces/inkscape" xmlns:xlink="http://www.w3.org/1999/xlink" xmlns:sodipodi="http://sodipodi.sourceforge.net/DTD/sodipodi-0.dtd" version="1.1">
<desc>configurationStart;Unit=smInches;Dpi=96;Division=4;Grid=True;Zoom=1.0;CanvasW=196.896;CanvasH=201.6;configurationEnd;</desc>
<g inkscape:label = "LogoSmovinColors Default Layer" inkscape:groupmode = "layer" >
  <path style="fill:#366BFF;stroke:none; stroke-width:1" d="m50.18,0a5 5,0 0,0 -3.18,1.18l-0.57,0.57l-43.73,43.7l-0.7,0.66a8 8,0 0,0 -2,5.35l0,46.86a5 5,0 0,0 5,5l45.18,0a5 5,0 0,0 5,-5l0,-93.32a5 5,0 0,0 -5,-5zm24.2,21.82l24.07,24l0.38,0.38a4.63 4.63,0 0,1 1.17,3.12l0,-0.1a4.63 4.63,0 0,1 -1.17,3.07l-0.38,0.38l-24.07,24.06l-0.54,0.54a4.81 4.81,0 0,1 -5.1,0.7a4.89 4.89,0 0,1 -2,-1.76a4.78 4.78,0 0,1 -0.74,-2.57l0,-48.73a4.78 4.78,0 0,1 0.75,-2.57a4.89 4.89,0 0,1 2,-1.76a4.81 4.81,0 0,1 5.1,0.7l0.53,0.54l0,0l0,0z"
        class = "
        cls-1" transform = "matrix(1.905944,0,0,1.905944,0,0)" vector-effect="non-scaling-stroke" pen = "1,1" />
</g>
</svg>
